REM DIRINDEX 1\6,1\2\7,1\2\8,1\2\9,1\3\10,1\3\11,1\4\12,1\4\13,1\4\14,1\5\15,1\5\16,1\5\17
REM DIRNAME folder01,folder02,folder03,folder04,folder05,folder06,folder07,folder08,folder09,folder10,folder11,folder12,folder13,folder14,folder15,folder16,folder17
TITLE ""
FILE "3Q_t2_0424-0439.mp3" MP3
  TRACK 01 AUDIO
    TITLE "7:cjc041_4687"
    INDEX 01 00:00:00
  TRACK 02 AUDIO
    TITLE "0:"
    INDEX 01 00:00:70
  TRACK 03 AUDIO
    TITLE "8:cjc041_4688"
    INDEX 01 00:01:52
  TRACK 04 AUDIO
    TITLE "0:"
    INDEX 01 00:02:59
  TRACK 05 AUDIO
    TITLE "9:cjc041_4689"
    INDEX 01 00:03:35
  TRACK 06 AUDIO
    TITLE "0:"
    INDEX 01 00:04:46
  TRACK 07 AUDIO
    TITLE "7:cjc041_4690"
    INDEX 01 00:06:22
  TRACK 08 AUDIO
    TITLE "0:"
    INDEX 01 00:07:54
  TRACK 09 AUDIO
    TITLE "8:cjc041_4691"
    INDEX 01 00:08:32
  TRACK 10 AUDIO
    TITLE "0:"
    INDEX 01 00:11:03
  TRACK 11 AUDIO
    TITLE "9:cjc041_4692"
    INDEX 01 00:11:56
  TRACK 12 AUDIO
    TITLE "0:"
    INDEX 01 00:13:10
  TRACK 13 AUDIO
    TITLE "7:cjc041_4693"
    INDEX 01 00:14:68
  TRACK 14 AUDIO
    TITLE "0:"
    INDEX 01 00:16:00
  TRACK 15 AUDIO
    TITLE "8:cjc041_4694"
    INDEX 01 00:16:55
  TRACK 16 AUDIO
    TITLE "0:"
    INDEX 01 00:17:39
  TRACK 17 AUDIO
    TITLE "9:cjc041_4695"
    INDEX 01 00:18:19
  TRACK 18 AUDIO
    TITLE "0:"
    INDEX 01 00:19:26
  TRACK 19 AUDIO
    TITLE "7:cjc041_4696"
    INDEX 01 00:21:08
  TRACK 20 AUDIO
    TITLE "0:"
    INDEX 01 00:22:32
  TRACK 21 AUDIO
    TITLE "8:cjc041_4697"
    INDEX 01 00:23:08
  TRACK 22 AUDIO
    TITLE "0:"
    INDEX 01 00:24:06
  TRACK 23 AUDIO
    TITLE "9:cjc041_4698"
    INDEX 01 00:24:59
  TRACK 24 AUDIO
    TITLE "0:"
    INDEX 01 00:26:03
  TRACK 25 AUDIO
    TITLE "7:cjc041_4699"
    INDEX 01 00:27:67
  TRACK 26 AUDIO
    TITLE "0:"
    INDEX 01 00:29:07
  TRACK 27 AUDIO
    TITLE "8:cjc041_4700"
    INDEX 01 00:29:64
  TRACK 28 AUDIO
    TITLE "0:"
    INDEX 01 00:30:69
  TRACK 29 AUDIO
    TITLE "9:cjc041_4701"
    INDEX 01 00:31:45
  TRACK 30 AUDIO
    TITLE "0:"
    INDEX 01 00:32:62
  TRACK 31 AUDIO
    TITLE "7:cjc041_4702"
    INDEX 01 00:34:45
  TRACK 32 AUDIO
    TITLE "0:"
    INDEX 01 00:35:72
  TRACK 33 AUDIO
    TITLE "8:cjc041_4703"
    INDEX 01 00:36:50
  TRACK 34 AUDIO
    TITLE "0:"
    INDEX 01 00:39:09
  TRACK 35 AUDIO
    TITLE "9:cjc041_4704"
    INDEX 01 00:39:56
  TRACK 36 AUDIO
    TITLE "0:"
    INDEX 01 00:41:04
  TRACK 37 AUDIO
    TITLE "7:cjc041_4705"
    INDEX 01 00:42:63
  TRACK 38 AUDIO
    TITLE "0:"
    INDEX 01 00:44:03
  TRACK 39 AUDIO
    TITLE "8:cjc041_4706"
    INDEX 01 00:44:52
  TRACK 40 AUDIO
    TITLE "0:"
    INDEX 01 00:46:62
  TRACK 41 AUDIO
    TITLE "9:cjc041_4707"
    INDEX 01 00:47:40
  TRACK 42 AUDIO
    TITLE "0:"
    INDEX 01 00:48:59
  TRACK 43 AUDIO
    TITLE "7:cjc041_4708"
    INDEX 01 00:50:37
  TRACK 44 AUDIO
    TITLE "0:"
    INDEX 01 00:51:65
  TRACK 45 AUDIO
    TITLE "8:cjc041_4709"
    INDEX 01 00:52:37
  TRACK 46 AUDIO
    TITLE "0:"
    INDEX 01 00:53:72
  TRACK 47 AUDIO
    TITLE "9:cjc041_4710"
    INDEX 01 00:54:50
  TRACK 48 AUDIO
    TITLE "0:"
    INDEX 01 00:56:04
  TRACK 49 AUDIO
    TITLE "7:cjc041_4711"
    INDEX 01 00:57:58
  TRACK 50 AUDIO
    TITLE "0:"
    INDEX 01 00:59:10
  TRACK 51 AUDIO
    TITLE "8:cjc041_4712"
    INDEX 01 00:59:61
  TRACK 52 AUDIO
    TITLE "0:"
    INDEX 01 01:01:66
  TRACK 53 AUDIO
    TITLE "9:cjc041_4713"
    INDEX 01 01:02:44
  TRACK 54 AUDIO
    TITLE "0:"
    INDEX 01 01:03:69
  TRACK 55 AUDIO
    TITLE "7:cjc041_4714"
    INDEX 01 01:05:52
  TRACK 56 AUDIO
    TITLE "0:"
    INDEX 01 01:06:69
  TRACK 57 AUDIO
    TITLE "8:cjc041_4715"
    INDEX 01 01:07:49
  TRACK 58 AUDIO
    TITLE "0:"
    INDEX 01 01:08:58
  TRACK 59 AUDIO
    TITLE "9:cjc041_4716"
    INDEX 01 01:09:38
  TRACK 60 AUDIO
    TITLE "0:"
    INDEX 01 01:10:61
  TRACK 61 AUDIO
    TITLE "7:cjc041_4717"
    INDEX 01 01:12:38
  TRACK 62 AUDIO
    TITLE "0:"
    INDEX 01 01:13:55
  TRACK 63 AUDIO
    TITLE "8:cjc041_4718"
    INDEX 01 01:14:41
  TRACK 64 AUDIO
    TITLE "0:"
    INDEX 01 01:16:52
  TRACK 65 AUDIO
    TITLE "9:cjc041_4719"
    INDEX 01 01:17:30
  TRACK 66 AUDIO
    TITLE "0:"
    INDEX 01 01:18:49
  TRACK 67 AUDIO
    TITLE "7:cjc041_4720"
    INDEX 01 01:20:30
  TRACK 68 AUDIO
    TITLE "0:"
    INDEX 01 01:21:51
  TRACK 69 AUDIO
    TITLE "8:cjc041_4721"
    INDEX 01 01:22:31
  TRACK 70 AUDIO
    TITLE "0:"
    INDEX 01 01:23:40
  TRACK 71 AUDIO
    TITLE "9:cjc041_4722"
    INDEX 01 01:24:20
  TRACK 72 AUDIO
    TITLE "0:"
    INDEX 01 01:25:43
  TRACK 73 AUDIO
    TITLE "7:cjc041_4723"
    INDEX 01 01:27:24
  TRACK 74 AUDIO
    TITLE "0:"
    INDEX 01 01:28:43
  TRACK 75 AUDIO
    TITLE "8:cjc041_4724"
    INDEX 01 01:29:23
  TRACK 76 AUDIO
    TITLE "0:"
    INDEX 01 01:30:36
  TRACK 77 AUDIO
    TITLE "9:cjc041_4725"
    INDEX 01 01:31:16
  TRACK 78 AUDIO
    TITLE "0:"
    INDEX 01 01:32:37
  TRACK 79 AUDIO
    TITLE "7:cjc041_4726"
    INDEX 01 01:34:22
  TRACK 80 AUDIO
    TITLE "0:"
    INDEX 01 01:35:31
  TRACK 81 AUDIO
    TITLE "8:cjc041_4727"
    INDEX 01 01:36:09
  TRACK 82 AUDIO
    TITLE "0:"
    INDEX 01 01:37:13
  TRACK 83 AUDIO
    TITLE "9:cjc041_4728"
    INDEX 01 01:37:69
  TRACK 84 AUDIO
    TITLE "0:"
    INDEX 01 01:39:06
  TRACK 85 AUDIO
    TITLE "7:cjc041_4729"
    INDEX 01 01:40:62
  TRACK 86 AUDIO
    TITLE "0:"
    INDEX 01 01:41:57
  TRACK 87 AUDIO
    TITLE "8:cjc041_4730"
    INDEX 01 01:42:41
  TRACK 88 AUDIO
    TITLE "0:"
    INDEX 01 01:44:52
  TRACK 89 AUDIO
    TITLE "9:cjc041_4731"
    INDEX 01 01:45:34
  TRACK 90 AUDIO
    TITLE "0:"
    INDEX 01 01:46:31
  TRACK 91 AUDIO
    TITLE "7:cjc041_4732"
    INDEX 01 01:48:16
  TRACK 92 AUDIO
    TITLE "0:"
    INDEX 01 01:49:24
  TRACK 93 AUDIO
    TITLE "8:cjc041_4733"
    INDEX 01 01:49:71
  TRACK 94 AUDIO
    TITLE "0:"
    INDEX 01 01:52:22
  TRACK 95 AUDIO
    TITLE "9:cjc041_4734"
    INDEX 01 01:53:02
  TRACK 96 AUDIO
    TITLE "0:"
    INDEX 01 01:54:13
